# Blender v2.73 (sub 0) OBJ File: 'box.blend'
# www.blender.org
o Cube
v 0.845470 0.003875 -0.859031
v 0.845470 0.003875 -0.151650
v 0.138088 0.003875 -0.151650
v 0.138088 0.003875 -0.859032
v 0.845470 0.711257 -0.859031
v 0.845469 0.711257 -0.151649
v 0.138088 0.711257 -0.151650
v 0.138088 0.711257 -0.859031
v 0.845470 0.711257 -0.257423
v 0.754983 0.711257 -0.859031
v 0.754982 0.711257 -0.151649
v 0.138088 0.711257 -0.257423
v 0.754982 0.711257 -0.257423
v 0.234755 0.711257 -0.859031
v 0.138088 0.711257 -0.788253
v 0.754983 0.711257 -0.788252
v 0.234755 0.711257 -0.257423
v 0.234755 0.711257 -0.788253
v 0.656083 0.244754 -0.340362
v 0.656083 0.244754 -0.705314
v 0.333655 0.244754 -0.340362
v 0.333655 0.244754 -0.705314
vt 0.251404 0.992884
vt 0.251515 0.943627
vt 0.308853 0.946091
vt 0.310552 0.987403
vt 0.301978 0.951178
vt 0.310552 0.944447
vt 0.309679 0.993764
vt 0.252653 0.993764
vt 0.252875 0.944507
vt 0.252224 0.944507
vt 0.309452 0.944507
vt 0.310122 0.944447
vt 0.252875 0.993704
vt 0.253097 0.946911
vt 0.252394 0.950808
vt 0.252394 0.987032
vt 0.301978 0.987403
vt 0.310552 0.993704
vt 0.253214 0.993704
vt 0.253214 0.987403
vt 0.258951 0.987403
vt 0.258951 0.951178
vt 0.258951 0.944447
vt 0.301978 0.944447
vt 0.260741 0.952999
vt 0.298999 0.959886
vt 0.298999 0.982337
vt 0.253214 0.951178
vt 0.253214 0.944447
vt 0.293098 0.984738
vt 0.266963 0.984738
vt 0.266963 0.959326
vt 0.298216 0.989729
vt 0.259773 0.983954
vt 0.259773 0.958541
vt 0.261133 0.952831
vt 0.299391 0.959718
vt 0.299391 0.982169
vt 0.298942 0.989729
vt 0.260499 0.983954
vt 0.260499 0.958541
vt 0.308632 0.992884
vt 0.309900 0.944507
vt 0.252114 0.993764
vt 0.309230 0.993764
vt 0.309900 0.993704
vt 0.252394 0.944507
vt 0.309510 0.993764
vt 0.252394 0.993764
vt 0.301978 0.993704
vt 0.260741 0.989224
vt 0.293098 0.959326
vt 0.298216 0.952766
vt 0.261133 0.989056
vt 0.298942 0.952766
vn 0.000000 -1.000000 0.000000
vn 0.000000 1.000000 0.000000
vn 1.000000 0.000000 0.000000
vn -0.000000 -0.000000 1.000000
vn -1.000000 -0.000000 -0.000000
vn 0.000000 0.000000 -1.000000
vn 0.000000 0.175000 0.984600
vn 0.978300 0.207400 0.000000
vn 0.000000 0.175000 -0.984600
vn -0.978300 0.207400 0.000000
s off
f 2/1/1 3/2/1 4/3/1
f 11/4/2 17/5/2 7/6/2
f 1/7/3 5/8/3 9/9/3
f 2/10/4 6/11/4 11/11/4
f 4/12/5 12/13/5 15/14/5
f 10/15/6 1/11/6 14/16/6
f 13/17/2 11/4/2 6/18/2
f 5/19/2 10/20/2 16/21/2
f 18/22/2 15/23/2 12/24/2
f 18/25/7 22/26/7 20/27/7
f 14/28/2 18/22/2 16/21/2
f 8/29/2 15/23/2 18/22/2
f 20/30/2 22/31/2 21/32/2
f 17/33/8 21/34/8 22/35/8
f 13/36/9 19/37/9 21/38/9
f 16/39/10 20/40/10 19/41/10
f 1/42/1 2/1/1 4/3/1
f 17/5/2 11/4/2 13/17/2
f 17/5/2 12/24/2 7/6/2
f 9/9/3 2/43/3 1/7/3
f 2/43/3 9/9/3 6/9/3
f 11/11/4 3/44/4 2/10/4
f 3/44/4 11/11/4 7/45/4
f 12/13/5 4/12/5 3/46/5
f 4/12/5 15/14/5 8/14/5
f 3/46/5 7/13/5 12/13/5
f 1/11/6 10/15/6 5/47/6
f 4/48/6 8/49/6 14/16/6
f 14/16/6 1/11/6 4/48/6
f 9/50/2 13/17/2 6/18/2
f 16/21/2 9/50/2 5/19/2
f 9/50/2 16/21/2 13/17/2
f 17/5/2 18/22/2 12/24/2
f 16/51/7 18/25/7 20/27/7
f 10/20/2 14/28/2 16/21/2
f 14/28/2 8/29/2 18/22/2
f 19/52/2 20/30/2 21/32/2
f 18/53/8 17/33/8 22/35/8
f 17/54/9 13/36/9 21/38/9
f 13/55/10 16/39/10 19/41/10
